<?xml version="1.0" encoding="iso-8859-1"?>
<!-- Generator: Adobe Illustrator 19.0.0, SVG Export Plug-In . SVG Version: 6.00 Build 0)  -->
<svg version="1.1" id="Capa_1" xmlns="http://www.w3.org/2000/svg" xmlns:xlink="http://www.w3.org/1999/xlink" x="0px" y="0px"
	 viewBox="0 0 512 512" style="enable-background:new 0 0 512 512;" xml:space="preserve">
<polygon style="fill:#439292;" points="425.98,512 456.885,512 456.885,481.095 395.074,419.284 "/>
<g>
	<polygon style="fill:#55C7C2;" points="55.115,481.095 55.115,512 425.98,512 425.98,419.284 	"/>
	<polygon style="fill:#55C7C2;" points="425.98,0 364.169,240.547 425.98,481.095 456.885,481.095 456.885,0 	"/>
</g>
<polygon style="fill:#66FCF1;" points="425.98,481.095 425.98,0 256,0 194.189,240.547 256,481.095 "/>
<polygon style="fill:#ABFFF9;" points="256,481.095 256,0 225.095,0 163.284,240.547 225.095,481.095 "/>
<polygon style="fill:#DBFFFC;" points="55.115,0 55.115,23.179 61.811,30.905 55.115,38.632 55.115,481.095 225.095,481.095 
	225.095,0 "/>
<path style="fill:#325D63;" d="M286.905,294.632c-4.268,0-7.726-3.458-7.726-7.726v-92.716c0-4.268,3.458-7.726,7.726-7.726
	s7.726,3.458,7.726,7.726v92.716C294.632,291.173,291.173,294.632,286.905,294.632z"/>
<path style="fill:#439292;" d="M225.095,294.632c-4.267,0-7.726-3.458-7.726-7.726v-92.716c0-4.268,3.459-7.726,7.726-7.726
	s7.726,3.458,7.726,7.726v92.716C232.821,291.173,229.362,294.632,225.095,294.632z"/>
<path style="fill:#62676F;" d="M163.284,99.928h-15.453V61.811c0-12.78-10.398-23.179-23.179-23.179H55.115V23.179h69.537
	c21.302,0,38.632,17.33,38.632,38.632V99.928z"/>
<g>
	<path style="fill:#55C7C2;" d="M155.557,179.767c-4.267,0-7.726-3.458-7.726-7.726v-15.453c0-4.268,3.459-7.726,7.726-7.726
		c4.267,0,7.726,3.458,7.726,7.726v15.453C163.284,176.308,159.824,179.767,155.557,179.767z"/>
	<path style="fill:#55C7C2;" d="M124.652,179.767c-4.267,0-7.726-3.458-7.726-7.726v-15.453c0-4.268,3.459-7.726,7.726-7.726
		c4.267,0,7.726,3.458,7.726,7.726v15.453C132.378,176.308,128.919,179.767,124.652,179.767z"/>
	<path style="fill:#55C7C2;" d="M186.463,179.767c-4.267,0-7.726-3.458-7.726-7.726v-15.453c0-4.268,3.459-7.726,7.726-7.726
		s7.726,3.458,7.726,7.726v15.453C194.189,176.308,190.73,179.767,186.463,179.767z"/>
	<path style="fill:#55C7C2;" d="M155.557,226.125c-4.267,0-7.726-3.458-7.726-7.726v-15.453c0-4.268,3.459-7.726,7.726-7.726
		c4.267,0,7.726,3.458,7.726,7.726v15.453C163.284,222.666,159.824,226.125,155.557,226.125z"/>
	<path style="fill:#55C7C2;" d="M124.652,226.125c-4.267,0-7.726-3.458-7.726-7.726v-15.453c0-4.268,3.459-7.726,7.726-7.726
		c4.267,0,7.726,3.458,7.726,7.726v15.453C132.378,222.666,128.919,226.125,124.652,226.125z"/>
	<path style="fill:#55C7C2;" d="M186.463,226.125c-4.267,0-7.726-3.458-7.726-7.726v-15.453c0-4.268,3.459-7.726,7.726-7.726
		s7.726,3.458,7.726,7.726v15.453C194.189,222.666,190.73,226.125,186.463,226.125z"/>
	<path style="fill:#55C7C2;" d="M155.557,272.483c-4.267,0-7.726-3.458-7.726-7.726v-15.453c0-4.268,3.459-7.726,7.726-7.726
		c4.267,0,7.726,3.458,7.726,7.726v15.453C163.284,269.025,159.824,272.483,155.557,272.483z"/>
	<path style="fill:#55C7C2;" d="M124.652,272.483c-4.267,0-7.726-3.458-7.726-7.726v-15.453c0-4.268,3.459-7.726,7.726-7.726
		c4.267,0,7.726,3.458,7.726,7.726v15.453C132.378,269.025,128.919,272.483,124.652,272.483z"/>
	<path style="fill:#55C7C2;" d="M186.463,272.483c-4.267,0-7.726-3.458-7.726-7.726v-15.453c0-4.268,3.459-7.726,7.726-7.726
		s7.726,3.458,7.726,7.726v15.453C194.189,269.025,190.73,272.483,186.463,272.483z"/>
	<path style="fill:#55C7C2;" d="M155.557,318.841c-4.267,0-7.726-3.458-7.726-7.726v-15.453c0-4.268,3.459-7.726,7.726-7.726
		c4.267,0,7.726,3.458,7.726,7.726v15.453C163.284,315.383,159.824,318.841,155.557,318.841z"/>
	<path style="fill:#55C7C2;" d="M124.652,318.841c-4.267,0-7.726-3.458-7.726-7.726v-15.453c0-4.268,3.459-7.726,7.726-7.726
		c4.267,0,7.726,3.458,7.726,7.726v15.453C132.378,315.383,128.919,318.841,124.652,318.841z"/>
	<path style="fill:#55C7C2;" d="M186.463,318.841c-4.267,0-7.726-3.458-7.726-7.726v-15.453c0-4.268,3.459-7.726,7.726-7.726
		s7.726,3.458,7.726,7.726v15.453C194.189,315.383,190.73,318.841,186.463,318.841z"/>
	<path style="fill:#55C7C2;" d="M155.557,365.199c-4.267,0-7.726-3.458-7.726-7.726V342.02c0-4.268,3.459-7.726,7.726-7.726
		c4.267,0,7.726,3.458,7.726,7.726v15.453C163.284,361.741,159.824,365.199,155.557,365.199z"/>
	<path style="fill:#55C7C2;" d="M124.652,365.199c-4.267,0-7.726-3.458-7.726-7.726V342.02c0-4.268,3.459-7.726,7.726-7.726
		c4.267,0,7.726,3.458,7.726,7.726v15.453C132.378,361.741,128.919,365.199,124.652,365.199z"/>
	<path style="fill:#55C7C2;" d="M186.463,365.199c-4.267,0-7.726-3.458-7.726-7.726V342.02c0-4.268,3.459-7.726,7.726-7.726
		s7.726,3.458,7.726,7.726v15.453C194.189,361.741,190.73,365.199,186.463,365.199z"/>
	<path style="fill:#55C7C2;" d="M155.557,411.557c-4.267,0-7.726-3.458-7.726-7.726v-15.453c0-4.268,3.459-7.726,7.726-7.726
		c4.267,0,7.726,3.458,7.726,7.726v15.453C163.284,408.099,159.824,411.557,155.557,411.557z"/>
	<path style="fill:#55C7C2;" d="M124.652,411.557c-4.267,0-7.726-3.458-7.726-7.726v-15.453c0-4.268,3.459-7.726,7.726-7.726
		c4.267,0,7.726,3.458,7.726,7.726v15.453C132.378,408.099,128.919,411.557,124.652,411.557z"/>
	<path style="fill:#55C7C2;" d="M186.463,411.557c-4.267,0-7.726-3.458-7.726-7.726v-15.453c0-4.268,3.459-7.726,7.726-7.726
		s7.726,3.458,7.726,7.726v15.453C194.189,408.099,190.73,411.557,186.463,411.557z"/>
	<path style="fill:#55C7C2;" d="M155.557,457.915c-4.267,0-7.726-3.458-7.726-7.726v-15.453c0-4.268,3.459-7.726,7.726-7.726
		c4.267,0,7.726,3.458,7.726,7.726v15.453C163.284,454.457,159.824,457.915,155.557,457.915z"/>
	<path style="fill:#55C7C2;" d="M124.652,457.915c-4.267,0-7.726-3.458-7.726-7.726v-15.453c0-4.268,3.459-7.726,7.726-7.726
		c4.267,0,7.726,3.458,7.726,7.726v15.453C132.378,454.457,128.919,457.915,124.652,457.915z"/>
	<path style="fill:#55C7C2;" d="M186.463,457.915c-4.267,0-7.726-3.458-7.726-7.726v-15.453c0-4.268,3.459-7.726,7.726-7.726
		s7.726,3.458,7.726,7.726v15.453C194.189,454.457,190.73,457.915,186.463,457.915z"/>
</g>
<path style="fill:#83878C;" d="M155.557,79.324l-10.302,23.179l10.302,23.179h46.358C201.915,100.079,181.16,79.324,155.557,79.324z
	"/>
<path style="fill:#A4A6AA;" d="M109.199,125.682h46.358V79.324C129.954,79.324,109.199,100.079,109.199,125.682z"/>
<path style="fill:#62676F;" d="M207.066,133.408H104.048c-4.267,0-7.726-3.458-7.726-7.726c0-4.268,3.459-7.726,7.726-7.726h103.018
	c4.267,0,7.726,3.458,7.726,7.726C214.793,129.95,211.333,133.408,207.066,133.408z"/>
<g>
</g>
<g>
</g>
<g>
</g>
<g>
</g>
<g>
</g>
<g>
</g>
<g>
</g>
<g>
</g>
<g>
</g>
<g>
</g>
<g>
</g>
<g>
</g>
<g>
</g>
<g>
</g>
<g>
</g>
</svg>
