<svg xmlns="http://www.w3.org/2000/svg" xmlns:xlink="http://www.w3.org/1999/xlink" version="1.1" id="Capa_1" x="0px" y="0px" viewBox="0 0 206.5 206.4" style="enable-background:new 0 0 206.5 206.4;" xml:space="preserve">
<style type="text/css">
	.st0{fill:#757575;}
</style>
<path class="st0" d="M177,206.4h-21.5c-2.2,0-4-1.8-4-4v-18H54.9v18c0,2.2-1.8,4-4,4H29.5c-2.2,0-4-1.8-4-4v-18H12.7  c-2.2,0-4-1.8-4-4v-50.3c0-10.1,7.2-18.6,16.8-20.5V98.8c0-21.2,17.2-38.4,38.4-38.4h78.7c21.2,0,38.4,17.2,38.4,38.4v10.8  c9.6,1.9,16.8,10.4,16.8,20.5v50.3c0,2.2-1.8,4-4,4H181v18C181,204.6,179.2,206.4,177,206.4z M159.5,198.4H173v-14h-13.5V198.4z   M33.5,198.4h13.5v-14H33.5V198.4z M177,176.4h12.8v-46.3c0-7.1-5.8-12.9-12.9-12.9H29.6c-7.1,0-12.9,5.8-12.9,12.9v46.3L177,176.4  L177,176.4z M155.5,109.2H173V98.8c0-16.8-13.6-30.4-30.4-30.4H63.9c-16.8,0-30.4,13.6-30.4,30.4v10.4h81.3  c1.9-9.5,10.3-16.7,20.3-16.7S153.6,99.7,155.5,109.2z M123.1,109.2h24.2c-1.7-5.1-6.5-8.7-12.1-8.7S124.7,104.1,123.1,109.2z   M166.3,165.8c-8.1,0-14.7-6.6-14.7-14.7c0-8.1,6.6-14.7,14.7-14.7s14.7,6.6,14.7,14.7C181,159.2,174.4,165.8,166.3,165.8z   M166.3,144.3c-3.7,0-6.7,3-6.7,6.7s3,6.7,6.7,6.7s6.7-3,6.7-6.7C173,147.4,170,144.3,166.3,144.3z M141,165.8H65.5  c-2.2,0-4-1.8-4-4s1.8-4,4-4H141c2.2,0,4,1.8,4,4S143.2,165.8,141,165.8z M40.2,165.8c-8.1,0-14.7-6.6-14.7-14.7  c0-8.1,6.6-14.7,14.7-14.7s14.7,6.6,14.7,14.7C54.9,159.2,48.3,165.8,40.2,165.8z M40.2,144.3c-3.7,0-6.7,3-6.7,6.7s3,6.7,6.7,6.7  s6.7-3,6.7-6.7C46.9,147.4,43.9,144.3,40.2,144.3z M141,144.3H65.5c-2.2,0-4-1.8-4-4s1.8-4,4-4H141c2.2,0,4,1.8,4,4  S143.2,144.3,141,144.3z M202.5,50c-0.5,0-1-0.1-1.6-0.3L103.2,8.3L5.6,49.7c-2,0.9-4.4-0.1-5.2-2.1s0.1-4.4,2.1-5.2l99.2-42  c0.5-0.2,1-0.3,1.6-0.3c0,0,0,0,0,0c0,0,0,0,0,0c0.5,0,1,0.1,1.4,0.3c0,0,0.1,0,0.1,0.1l99.2,42c2,0.9,3,3.2,2.1,5.2  C205.5,49.1,204,50,202.5,50z"/>
</svg>
